REM DIRINDEX 1\2,1\3,1\4,1\5
REM DIRNAME "folder01","folder02","folder03","folder04","folder05"
TITLE ""
FILE "P1Q_t_0139-0148.mp3" MP3
  TRACK 01 AUDIO
    TITLE "3:cjc173_1329"
    INDEX 01 00:00:00
  TRACK 02 AUDIO
    TITLE "0:"
    INDEX 01 00:01:23
  TRACK 03 AUDIO
    TITLE "4:cjc173_1330"
    INDEX 01 00:01:45
  TRACK 04 AUDIO
    TITLE "0:"
    INDEX 01 00:03:73
  TRACK 05 AUDIO
    TITLE "5:cjc173_1331"
    INDEX 01 00:04:18
  TRACK 06 AUDIO
    TITLE "0:"
    INDEX 01 00:08:33
  TRACK 07 AUDIO
    TITLE "3:cjc173_1332"
    INDEX 01 00:09:05
  TRACK 08 AUDIO
    TITLE "0:"
    INDEX 01 00:10:22
  TRACK 09 AUDIO
    TITLE "4:cjc173_1333"
    INDEX 01 00:10:46
  TRACK 10 AUDIO
    TITLE "0:"
    INDEX 01 00:12:62
  TRACK 11 AUDIO
    TITLE "5:cjc173_1334"
    INDEX 01 00:13:07
  TRACK 12 AUDIO
    TITLE "0:"
    INDEX 01 00:17:50
  TRACK 13 AUDIO
    TITLE "3:cjc173_1335"
    INDEX 01 00:18:22
  TRACK 14 AUDIO
    TITLE "0:"
    INDEX 01 00:19:31
  TRACK 15 AUDIO
    TITLE "4:cjc173_1336"
    INDEX 01 00:19:53
  TRACK 16 AUDIO
    TITLE "0:"
    INDEX 01 00:21:59
  TRACK 17 AUDIO
    TITLE "5:cjc173_1337"
    INDEX 01 00:22:04
  TRACK 18 AUDIO
    TITLE "0:"
    INDEX 01 00:27:07
  TRACK 19 AUDIO
    TITLE "3:cjc173_1338"
    INDEX 01 00:27:52
  TRACK 20 AUDIO
    TITLE "0:"
    INDEX 01 00:28:50
  TRACK 21 AUDIO
    TITLE "4:cjc173_1339"
    INDEX 01 00:29:04
  TRACK 22 AUDIO
    TITLE "0:"
    INDEX 01 00:30:13
  TRACK 23 AUDIO
    TITLE "5:cjc173_1340"
    INDEX 01 00:30:33
  TRACK 24 AUDIO
    TITLE "0:"
    INDEX 01 00:35:54
  TRACK 25 AUDIO
    TITLE "3:cjc173_1341"
    INDEX 01 00:36:24
  TRACK 26 AUDIO
    TITLE "0:"
    INDEX 01 00:37:43
  TRACK 27 AUDIO
    TITLE "4:cjc173_1342"
    INDEX 01 00:37:64
  TRACK 28 AUDIO
    TITLE "0:"
    INDEX 01 00:42:58
  TRACK 29 AUDIO
    TITLE "5:cjc173_1343"
    INDEX 01 00:43:04
  TRACK 30 AUDIO
    TITLE "0:"
    INDEX 01 00:49:50
  TRACK 31 AUDIO
    TITLE "3:cjc173_1344"
    INDEX 01 00:50:18
  TRACK 32 AUDIO
    TITLE "0:"
    INDEX 01 00:51:43
  TRACK 33 AUDIO
    TITLE "4:cjc173_1345"
    INDEX 01 00:51:63
  TRACK 34 AUDIO
    TITLE "0:"
    INDEX 01 00:53:71
  TRACK 35 AUDIO
    TITLE "5:cjc173_1346"
    INDEX 01 00:54:16
  TRACK 36 AUDIO
    TITLE "0:"
    INDEX 01 00:59:70
  TRACK 37 AUDIO
    TITLE "3:cjc173_1347"
    INDEX 01 01:00:40
  TRACK 38 AUDIO
    TITLE "0:"
    INDEX 01 01:01:45
  TRACK 39 AUDIO
    TITLE "4:cjc173_1348"
    INDEX 01 01:01:65
  TRACK 40 AUDIO
    TITLE "0:"
    INDEX 01 01:03:68
  TRACK 41 AUDIO
    TITLE "5:cjc173_1349"
    INDEX 01 01:04:12
  TRACK 42 AUDIO
    TITLE "0:"
    INDEX 01 01:09:23
  TRACK 43 AUDIO
    TITLE "3:cjc173_1350"
    INDEX 01 01:09:72
  TRACK 44 AUDIO
    TITLE "0:"
    INDEX 01 01:11:18
  TRACK 45 AUDIO
    TITLE "4:cjc173_1351"
    INDEX 01 01:11:40
  TRACK 46 AUDIO
    TITLE "0:"
    INDEX 01 01:15:18
  TRACK 47 AUDIO
    TITLE "5:cjc173_1352"
    INDEX 01 01:15:39
  TRACK 48 AUDIO
    TITLE "0:"
    INDEX 01 01:20:13
  TRACK 49 AUDIO
    TITLE "3:cjc173_1353"
    INDEX 01 01:20:58
  TRACK 50 AUDIO
    TITLE "0:"
    INDEX 01 01:21:73
  TRACK 51 AUDIO
    TITLE "4:cjc173_1354"
    INDEX 01 01:22:20
  TRACK 52 AUDIO
    TITLE "0:"
    INDEX 01 01:24:64
  TRACK 53 AUDIO
    TITLE "5:cjc173_1355"
    INDEX 01 01:25:10
  TRACK 54 AUDIO
    TITLE "0:"
    INDEX 01 01:30:08
  TRACK 55 AUDIO
    TITLE "3:cjc173_1356"
    INDEX 01 01:30:55
  TRACK 56 AUDIO
    TITLE "0:"
    INDEX 01 01:32:12
  TRACK 57 AUDIO
    TITLE "4:cjc173_1357"
    INDEX 01 01:32:36
  TRACK 58 AUDIO
    TITLE "0:"
    INDEX 01 01:35:72
  TRACK 59 AUDIO
    TITLE "5:cjc173_1358"
    INDEX 01 01:36:16
  TRACK 60 AUDIO
    TITLE "0:"
    INDEX 01 01:41:57
